<svg width="32" height="32" viewBox="0 0 32 32" fill="none" xmlns="http://www.w3.org/2000/svg">
<path d="M11.166 16C11.166 16.3238 11.2917 16.6 11.5528 16.8476L19.0946 24.1143C19.2976 24.3238 19.5683 24.4286 19.8777 24.4286C20.5062 24.4286 20.9993 23.9524 20.9993 23.3238C20.9993 23.019 20.8737 22.7429 20.6609 22.5333L13.8637 16L20.6609 9.46666C20.8737 9.24762 20.9993 8.97143 20.9993 8.66666C20.9993 8.04762 20.5062 7.57143 19.8777 7.57143C19.5683 7.57143 19.2976 7.67619 19.0946 7.88571L11.5528 15.1524C11.2917 15.4 11.1757 15.6762 11.166 16Z" fill="#4D5250"/>
</svg>
